<svg width="202" height="29" viewBox="0 0 202 29" fill="none" xmlns="http://www.w3.org/2000/svg">
<path d="M29.3154 21.6735V2.50391H36.9504C38.6712 2.50391 39.993 2.99392 40.9184 3.97394C41.8437 4.95395 42.3063 6.29407 42.3063 7.99656C42.3063 9.69906 41.8437 11.0414 40.9184 12.0192C39.993 12.9992 38.6712 13.4892 36.9504 13.4892H31.6219V21.6735H29.3154ZM31.6219 11.4562H36.9504C37.8666 11.4562 38.5754 11.2192 39.0791 10.7429C39.5828 10.2665 39.8335 9.58966 39.8335 8.70992V7.28092C39.8335 6.40119 39.5805 5.72429 39.0791 5.24796C38.5754 4.77162 37.8666 4.5346 36.9504 4.5346H31.6219V11.4562Z" fill="black"/>
<path d="M45.4624 21.6754V7.50391H47.6595V10.1135H47.7962C48.0515 9.43659 48.5096 8.83263 49.1682 8.3016C49.8269 7.77057 50.734 7.50619 51.8872 7.50619H52.7396V9.70325H51.4496C50.2599 9.70325 49.33 9.9266 48.6623 10.3756C47.9945 10.8246 47.6595 11.3875 47.6595 12.0644V21.6754H45.4624Z" fill="black"/>
<path d="M65.7305 21.6735C64.9077 21.6735 64.3152 21.4548 63.9596 21.0149C63.6018 20.575 63.3785 20.0257 63.2873 19.3671H63.1506C62.8383 20.2468 62.3255 20.9055 61.6122 21.3454C60.8988 21.7852 60.0464 22.004 59.0573 22.004C57.5553 22.004 56.3884 21.6188 55.5566 20.8508C54.7224 20.0827 54.3076 19.0389 54.3076 17.7193C54.3076 16.3997 54.7976 15.3581 55.7776 14.6425C56.7577 13.9291 58.2801 13.5713 60.3495 13.5713H63.1506V12.1697C63.1506 11.1623 62.8748 10.3942 62.3255 9.86318C61.7763 9.33215 60.933 9.06777 59.798 9.06777C58.9365 9.06777 58.2186 9.25921 57.642 9.64438C57.0653 10.0296 56.5844 10.5424 56.1993 11.1828L54.882 9.9475C55.2671 9.17945 55.8802 8.52306 56.7212 7.98291C57.5622 7.44277 58.6242 7.17383 59.9074 7.17383C61.6281 7.17383 62.966 7.59319 63.9163 8.43418C64.869 9.27517 65.3453 10.4444 65.3453 11.9418V19.7249H66.9658V21.6758H65.7305V21.6735ZM59.4151 20.1351C59.9644 20.1351 60.468 20.0713 60.9261 19.9437C61.3842 19.8161 61.7785 19.6315 62.1067 19.3944C62.4372 19.1574 62.6925 18.8816 62.8748 18.5717C63.0571 18.2594 63.1506 17.9221 63.1506 17.5552V15.2214H60.2401C58.9775 15.2214 58.0568 15.4037 57.4801 15.7707C56.9035 16.1376 56.6141 16.6686 56.6141 17.3638V17.9404C56.6141 18.6355 56.8648 19.1756 57.3685 19.5608C57.8721 19.946 58.5536 20.1374 59.4151 20.1374V20.1351Z" fill="black"/>
<path d="M82.0422 23.2536C82.0422 24.7122 81.4702 25.7857 80.326 26.4694C79.1819 27.1531 77.4658 27.495 75.1775 27.495C72.8893 27.495 71.3691 27.1919 70.3982 26.5902C69.4273 25.9862 68.9419 25.127 68.9419 24.0125C68.9419 23.2445 69.1425 22.645 69.5459 22.2166C69.9493 21.7858 70.4985 21.4713 71.1937 21.2707V20.9699C70.3504 20.5688 69.931 19.9124 69.931 19.0008C69.931 18.2897 70.1589 17.7472 70.617 17.3735C71.0751 16.9997 71.6609 16.7217 72.3742 16.5393V16.4299C71.531 16.0265 70.8769 15.4476 70.4096 14.6955C69.9424 13.9434 69.71 13.0705 69.71 12.0791C69.71 11.3635 69.8376 10.7025 70.0951 10.0963C70.3504 9.49005 70.7128 8.9727 71.18 8.53966C71.6472 8.10891 72.2056 7.77388 72.8551 7.53458C73.5047 7.29527 74.2317 7.17676 75.0385 7.17676C76.0459 7.17676 76.9416 7.35909 77.7301 7.72602V7.47988C77.7301 6.92378 77.8578 6.46568 78.1153 6.1033C78.3706 5.74092 78.7922 5.55859 79.3779 5.55859H81.4929V7.50951H78.8013V8.41887C79.3141 8.86102 79.713 9.38749 79.9956 10.0028C80.2782 10.6182 80.4218 11.311 80.4218 12.0814C80.4218 12.797 80.2941 13.458 80.0366 14.0642C79.779 14.6705 79.419 15.1901 78.9517 15.6208C78.4845 16.0516 77.9216 16.3866 77.2629 16.6259C76.6043 16.8652 75.8704 16.9837 75.0659 16.9837C74.6078 16.9837 74.1497 16.9382 73.6938 16.847C73.2175 16.9746 72.7867 17.1638 72.4039 17.4099C72.0187 17.6561 71.8272 18.0002 71.8272 18.4401C71.8272 18.88 72.0278 19.1443 72.4312 19.2925C72.8346 19.4383 73.3565 19.5113 73.997 19.5113H77.0168C78.774 19.5113 80.0525 19.844 80.8479 20.5095C81.6434 21.175 82.0422 22.0912 82.0422 23.2604V23.2536ZM79.9819 23.404C79.9819 22.8365 79.7654 22.383 79.3369 22.0456C78.9061 21.7061 78.1426 21.5374 77.0441 21.5374H72.3195C71.4398 21.9408 71.0022 22.5812 71.0022 23.461C71.0022 24.0832 71.2347 24.6142 71.7019 25.0541C72.1691 25.4939 72.96 25.7127 74.0767 25.7127H76.1097C77.3359 25.7127 78.2885 25.5213 78.9654 25.1361C79.6423 24.7509 79.9819 24.1743 79.9819 23.4063V23.404ZM75.0659 15.2197C76.0003 15.2197 76.741 14.9941 77.2903 14.5451C77.8395 14.0938 78.1153 13.401 78.1153 12.462V11.6894C78.1153 10.7527 77.8395 10.0575 77.2903 9.60629C76.741 9.15502 76.0003 8.93167 75.0659 8.93167C74.1314 8.93167 73.3907 9.1573 72.8414 9.60629C72.2922 10.0575 72.0164 10.7504 72.0164 11.6894V12.462C72.0164 13.401 72.2922 14.0938 72.8414 14.5451C73.3907 14.9964 74.1314 15.2197 75.0659 15.2197Z" fill="black"/>
<path d="M84.5981 21.6735V7.50202H86.7952V9.78341H86.9046C87.0687 9.42103 87.2579 9.08144 87.4675 8.76465C87.6772 8.44785 87.9348 8.17208 88.2356 7.93505C88.5387 7.7003 88.8897 7.51342 89.2931 7.37667C89.6965 7.23992 90.1728 7.17383 90.7221 7.17383C91.6565 7.17383 92.5158 7.39718 93.3043 7.84161C94.0906 8.28604 94.6764 9.01763 95.0615 10.0341H95.1162C95.3715 9.27289 95.8524 8.60511 96.5589 8.03305C97.2631 7.461 98.2204 7.17611 99.4283 7.17611C100.876 7.17611 102.006 7.64788 102.82 8.59144C103.633 9.53499 104.041 10.866 104.041 12.5867V21.6758H101.844V12.9491C101.844 11.6842 101.598 10.7293 101.103 10.0866C100.609 9.44382 99.8226 9.12247 98.7423 9.12247C98.3024 9.12247 97.8853 9.17717 97.4933 9.28884C97.099 9.39824 96.7481 9.56461 96.4358 9.78341C96.1236 10.0045 95.8774 10.2826 95.6951 10.6222C95.5128 10.9617 95.4193 11.3606 95.4193 11.8187V21.6713H93.2223V12.9491C93.2223 11.6842 92.9761 10.7293 92.4816 10.0866C91.987 9.44382 91.219 9.12247 90.1751 9.12247C89.7353 9.12247 89.3136 9.17717 88.9125 9.28884C88.5091 9.39824 88.1536 9.56461 87.8413 9.78341C87.5291 10.0045 87.2784 10.2826 87.0869 10.6222C86.8955 10.9617 86.7975 11.3606 86.7975 11.8187V21.6713H84.6004L84.5981 21.6735Z" fill="black"/>
<path d="M118.871 21.6735C118.048 21.6735 117.455 21.4547 117.1 21.0148C116.742 20.575 116.519 20.0257 116.427 19.367H116.291C115.978 20.2468 115.466 20.9054 114.752 21.3453C114.039 21.7852 113.187 22.004 112.197 22.004C110.695 22.004 109.529 21.6188 108.697 20.8507C107.863 20.0827 107.448 19.0388 107.448 17.7192C107.448 16.3996 107.938 15.3581 108.918 14.6424C109.898 13.9291 111.42 13.5713 113.49 13.5713H116.291V12.1696C116.291 11.1622 116.015 10.3942 115.466 9.86318C114.916 9.33215 114.073 9.06777 112.938 9.06777C112.077 9.06777 111.359 9.25922 110.782 9.64439C110.205 10.0295 109.725 10.5423 109.339 11.1828L108.022 9.94751C108.407 9.17945 109.02 8.52307 109.861 7.98292C110.702 7.44277 111.764 7.17383 113.048 7.17383C114.768 7.17383 116.106 7.59319 117.056 8.43418C118.009 9.27517 118.485 10.4443 118.485 11.9417V19.7249H120.106V21.6758H118.871V21.6735ZM112.555 20.1351C113.104 20.1351 113.608 20.0713 114.066 19.9436C114.524 19.816 114.919 19.6314 115.247 19.3944C115.577 19.1574 115.833 18.8816 116.015 18.5716C116.197 18.2594 116.291 17.9221 116.291 17.5551V15.2213H113.38C112.118 15.2213 111.197 15.4037 110.62 15.7706C110.044 16.1375 109.754 16.6686 109.754 17.3637V17.9403C109.754 18.6354 110.005 19.1756 110.509 19.5608C111.012 19.9459 111.694 20.1374 112.555 20.1374V20.1351Z" fill="black"/>
<path d="M19.8928 6.12305C20.1031 6.53938 20.2245 7.00559 20.2245 7.50215V17.583C20.2245 19.2744 18.8498 20.6492 17.1584 20.6492H7.07539C6.57882 20.6492 6.11045 20.5277 5.69629 20.3174C6.20152 21.317 7.23585 22.0044 8.43063 22.0044H18.5115C20.2028 22.0044 21.5776 20.6296 21.5776 18.9383V8.85739C21.5776 7.66261 20.8902 6.62829 19.8906 6.12305H19.8928Z" fill="black"/>
<path d="M15.8684 19.4951C17.5598 19.4951 18.9345 18.1203 18.9345 16.4289V6.34589C18.9345 6.16374 18.915 5.9881 18.8847 5.81463C18.8153 5.42432 18.6743 5.06002 18.4727 4.73476C18.1756 4.25555 17.7528 3.86525 17.2475 3.60938C17.382 3.87391 17.4774 4.15798 17.5294 4.45939C17.5598 4.63286 17.5793 4.8085 17.5793 4.99064V15.0715C17.5793 16.7629 16.2045 18.1376 14.5132 18.1376H4.43232C4.30655 18.1376 4.18079 18.1268 4.05936 18.1116C3.70157 18.0683 3.3633 17.962 3.05322 17.8059C3.35897 18.4109 3.85986 18.8987 4.47135 19.1915C4.76408 19.3303 5.08067 19.4257 5.4146 19.4669C5.5382 19.482 5.6618 19.4929 5.78757 19.4929H15.8684V19.4951Z" fill="black"/>
<path d="M4.00936 17.0785H13.1491C14.8405 17.0785 16.2152 15.7038 16.2152 14.0124V3.92939C16.2152 3.71255 16.1914 3.50005 16.148 3.29405C16.0591 2.86905 15.8791 2.47874 15.6341 2.14047C15.0768 1.36852 14.1726 0.863281 13.1491 0.863281H3.06611C1.37476 0.863281 0 2.23804 0 3.92939V14.0124C0 15.307 0.80881 16.415 1.94722 16.8639C2.21176 16.9679 2.49365 17.0373 2.78855 17.0634C2.87963 17.072 2.97287 17.0785 3.06828 17.0785H4.01153H4.00936ZM14.4176 14.0124C14.4176 14.7128 13.8474 15.2831 13.147 15.2831H6.85212V10.8292C6.85212 9.13787 8.22688 7.76311 9.91823 7.76311H14.4176V14.0124ZM14.4176 6.40786H8.56298C6.87164 6.40786 5.49687 7.78262 5.49687 9.47397V15.2831H4.20885V8.31822C4.20885 6.62687 5.58361 5.25211 7.27496 5.25211H14.4176V6.40786ZM2.72133 15.2332C2.18791 15.0814 1.7976 14.5936 1.7976 14.0124V3.92939C1.7976 3.229 2.36788 2.65871 3.06828 2.65871H13.1491C13.6132 2.65871 14.0165 2.90808 14.2398 3.27887C14.3483 3.46102 14.4133 3.66918 14.4176 3.8947H5.91971C4.22836 3.8947 2.8536 5.26946 2.8536 6.9608V15.2592C2.80807 15.2506 2.7647 15.2419 2.72133 15.2289V15.2332Z" fill="black"/>
<path d="M126.993 3.24414H133.311C134.481 3.24414 135.543 3.44214 136.497 3.83814C137.451 4.23414 138.261 4.82814 138.927 5.62014C139.611 6.39414 140.133 7.37514 140.493 8.56314C140.853 9.73314 141.033 11.1011 141.033 12.6671C141.033 14.2331 140.853 15.6101 140.493 16.7981C140.133 17.9681 139.611 18.9491 138.927 19.7411C138.261 20.5151 137.451 21.1001 136.497 21.4961C135.543 21.8921 134.481 22.0901 133.311 22.0901H126.993V3.24414ZM133.311 20.0921C134.085 20.0921 134.796 19.9661 135.444 19.7141C136.092 19.4441 136.65 19.0571 137.118 18.5531C137.586 18.0491 137.946 17.4371 138.198 16.7171C138.468 15.9791 138.603 15.1421 138.603 14.2061V11.1281C138.603 10.1921 138.468 9.36414 138.198 8.64414C137.946 7.90614 137.586 7.28514 137.118 6.78114C136.65 6.27714 136.092 5.89914 135.444 5.64714C134.796 5.37714 134.085 5.24214 133.311 5.24214H129.261V20.0921H133.311ZM150.427 22.4141C149.491 22.4141 148.636 22.2431 147.862 21.9011C147.088 21.5591 146.422 21.0731 145.864 20.4431C145.324 19.7951 144.901 19.0301 144.595 18.1481C144.289 17.2481 144.136 16.2401 144.136 15.1241C144.136 14.0261 144.289 13.0271 144.595 12.1271C144.901 11.2271 145.324 10.4621 145.864 9.83214C146.422 9.18414 147.088 8.68914 147.862 8.34714C148.636 8.00514 149.491 7.83414 150.427 7.83414C151.363 7.83414 152.209 8.00514 152.965 8.34714C153.739 8.68914 154.405 9.18414 154.963 9.83214C155.521 10.4621 155.953 11.2271 156.259 12.1271C156.565 13.0271 156.718 14.0261 156.718 15.1241C156.718 16.2401 156.565 17.2481 156.259 18.1481C155.953 19.0301 155.521 19.7951 154.963 20.4431C154.405 21.0731 153.739 21.5591 152.965 21.9011C152.209 22.2431 151.363 22.4141 150.427 22.4141ZM150.427 20.4971C151.597 20.4971 152.551 20.1371 153.289 19.4171C154.027 18.6971 154.396 17.5991 154.396 16.1231V14.1251C154.396 12.6491 154.027 11.5511 153.289 10.8311C152.551 10.1111 151.597 9.75114 150.427 9.75114C149.257 9.75114 148.303 10.1111 147.565 10.8311C146.827 11.5511 146.458 12.6491 146.458 14.1251V16.1231C146.458 17.5991 146.827 18.6971 147.565 19.4171C148.303 20.1371 149.257 20.4971 150.427 20.4971ZM165.724 22.4141C164.752 22.4141 163.879 22.2431 163.105 21.9011C162.331 21.5591 161.674 21.0731 161.134 20.4431C160.612 19.8131 160.207 19.0481 159.919 18.1481C159.649 17.2481 159.514 16.2401 159.514 15.1241C159.514 14.0081 159.649 13.0001 159.919 12.1001C160.207 11.2001 160.612 10.4351 161.134 9.80514C161.674 9.17514 162.331 8.68914 163.105 8.34714C163.879 8.00514 164.752 7.83414 165.724 7.83414C167.11 7.83414 168.217 8.14014 169.045 8.75214C169.891 9.34614 170.521 10.1291 170.935 11.1011L169.126 12.0191C168.874 11.2991 168.46 10.7411 167.884 10.3451C167.308 9.94914 166.588 9.75114 165.724 9.75114C165.076 9.75114 164.509 9.85914 164.023 10.0751C163.537 10.2731 163.132 10.5611 162.808 10.9391C162.484 11.2991 162.241 11.7401 162.079 12.2621C161.917 12.7661 161.836 13.3241 161.836 13.9361V16.3121C161.836 17.5361 162.16 18.5441 162.808 19.3361C163.474 20.1101 164.446 20.4971 165.724 20.4971C167.47 20.4971 168.73 19.6871 169.504 18.0671L171.07 19.1201C170.62 20.1281 169.945 20.9291 169.045 21.5231C168.163 22.1171 167.056 22.4141 165.724 22.4141ZM178.574 22.4141C177.278 22.4141 176.189 22.1711 175.307 21.6851C174.443 21.1811 173.696 20.5151 173.066 19.6871L174.605 18.4451C175.145 19.1291 175.748 19.6601 176.414 20.0381C177.08 20.3981 177.854 20.5781 178.736 20.5781C179.654 20.5781 180.365 20.3801 180.869 19.9841C181.391 19.5881 181.652 19.0301 181.652 18.3101C181.652 17.7701 181.472 17.3111 181.112 16.9331C180.77 16.5371 180.14 16.2671 179.222 16.1231L178.115 15.9611C177.467 15.8711 176.873 15.7361 176.333 15.5561C175.793 15.3581 175.316 15.1061 174.902 14.8001C174.506 14.4761 174.191 14.0801 173.957 13.6121C173.741 13.1441 173.633 12.5861 173.633 11.9381C173.633 11.2541 173.759 10.6601 174.011 10.1561C174.263 9.63414 174.605 9.20214 175.037 8.86014C175.487 8.51814 176.018 8.26614 176.63 8.10414C177.242 7.92414 177.899 7.83414 178.601 7.83414C179.735 7.83414 180.68 8.03214 181.436 8.42814C182.21 8.82414 182.885 9.37314 183.461 10.0751L182.03 11.3711C181.724 10.9391 181.274 10.5521 180.68 10.2101C180.086 9.85014 179.339 9.67014 178.439 9.67014C177.539 9.67014 176.855 9.86814 176.387 10.2641C175.937 10.6421 175.712 11.1641 175.712 11.8301C175.712 12.5141 175.937 13.0091 176.387 13.3151C176.855 13.6211 177.521 13.8461 178.385 13.9901L179.465 14.1521C181.013 14.3861 182.111 14.8361 182.759 15.5021C183.407 16.1501 183.731 17.0051 183.731 18.0671C183.731 19.4171 183.272 20.4791 182.354 21.2531C181.436 22.0271 180.176 22.4141 178.574 22.4141Z" fill="black" fill-opacity="0.5"/>
</svg>
