<svg width="1486" height="1080" viewBox="0 0 1486 1080" fill="none" xmlns="http://www.w3.org/2000/svg">
<g clip-path="url(#clip0_54_2603)">
<rect width="1486" height="1080" fill="#1A1A1A"/>
<path d="M803.428 522.2V557.838L710.135 611.68L679.264 593.86V486.158L710.134 468.339L803.428 522.2ZM731.088 503.37C710.773 503.37 694.293 519.847 694.293 540.158C694.293 560.469 710.773 576.946 731.088 576.946C751.402 576.946 767.882 560.469 767.882 540.158C767.882 519.847 751.402 503.37 731.088 503.37Z" stroke="white" stroke-width="0.7"/>
<path d="M891.137 500.808V579.763L685.3 698.555L616.906 659.078V421.449L685.299 381.972L891.137 500.808ZM731.434 460.011C686.936 460.011 650.84 496.101 650.84 540.591C650.84 585.08 686.936 621.171 731.434 621.171C775.931 621.171 812.028 585.08 812.028 540.591C812.028 496.101 775.931 460.011 731.434 460.011Z" stroke="white" stroke-width="0.7"/>
<path d="M1080.52 453.664V626.526L630.693 886.129L480.953 799.697V280.397L630.692 193.966L1080.52 453.664ZM731.419 365.243C634.495 365.243 555.869 443.854 555.869 540.761C555.869 637.668 634.495 716.279 731.419 716.279C828.343 716.279 906.969 637.668 906.969 540.761C906.969 443.854 828.343 365.243 731.419 365.243Z" stroke="white" stroke-width="0.7"/>
<path d="M1467.11 358.042V722.357L519.859 1269.03L204.276 1086.88V-6.67676L519.859 -188.835L1467.11 358.042ZM731.884 172.528C528.076 172.528 362.744 337.83 362.744 541.602C362.744 745.373 528.076 910.675 731.884 910.675C935.691 910.675 1101.02 745.373 1101.02 541.602C1101.02 337.83 935.691 172.529 731.884 172.528Z" stroke="white" stroke-width="0.7"/>
</g>
<defs>
<clipPath id="clip0_54_2603">
<rect width="1486" height="1080" fill="white"/>
</clipPath>
</defs>
</svg>
